<svg width="151" height="49" viewBox="0 0 151 49" fill="none" xmlns="http://www.w3.org/2000/svg">
<mask id="mask0_1576_7934" style="mask-type:alpha" maskUnits="userSpaceOnUse" x="0" y="0" width="151" height="49">
<rect width="151" height="49" fill="white"/>
</mask>
<g mask="url(#mask0_1576_7934)">
</g>
<path d="M43.2103 17.2914C43.6168 17.2914 43.9607 17.4487 44.2421 17.7634C44.5392 18.0624 44.6876 18.4165 44.6876 18.8257C44.6876 19.2348 44.5392 19.5967 44.2421 19.9115C43.9607 20.2104 43.6168 20.36 43.2103 20.36C42.757 20.3442 42.3818 20.2026 42.0847 19.9351C41.8033 19.6518 41.6626 19.2584 41.6626 18.7548C41.6783 18.3457 41.8346 17.9995 42.1316 17.7162C42.4443 17.433 42.8039 17.2914 43.2103 17.2914ZM43.2103 20.9029C43.6168 20.9029 43.9529 21.0524 44.2186 21.3513C44.5 21.6503 44.6564 22.0123 44.6876 22.4372V30.7932C44.6876 31.2181 44.5548 31.5722 44.289 31.8554C44.0233 32.1387 43.6637 32.296 43.2103 32.3275C42.8039 32.3275 42.4599 32.2016 42.1785 31.9498C41.8971 31.6981 41.7252 31.344 41.6626 30.8876V22.3427C41.6939 21.9336 41.858 21.5953 42.155 21.3277C42.4521 21.0602 42.8039 20.9186 43.2103 20.9029ZM51.8702 20.7612C52.6206 20.7612 53.3397 20.9029 54.0276 21.1861C54.7154 21.4537 55.3173 21.8392 55.8332 22.3427C56.3491 22.8306 56.7634 23.4128 57.0761 24.0895C57.3887 24.7661 57.5451 25.4979 57.5451 26.2847V30.6516C57.5451 31.0608 57.3965 31.4148 57.0995 31.7138C56.8181 32.0128 56.4664 32.1702 56.0443 32.1859C55.6222 32.1859 55.2548 32.0521 54.9421 31.7846C54.6451 31.5013 54.4966 31.1473 54.4966 30.7224V26.4736C54.4966 26.1116 54.4262 25.7733 54.2855 25.4586C54.1604 25.1281 53.9728 24.8448 53.7227 24.6088C53.4882 24.3727 53.2068 24.1839 52.8785 24.0423C52.5658 23.9007 52.2219 23.8298 51.8467 23.8298C51.5028 23.8298 51.1745 23.9007 50.8618 24.0423C50.5491 24.1682 50.2756 24.3412 50.0411 24.5616C49.8066 24.7819 49.619 25.0494 49.4783 25.3641C49.3376 25.6789 49.2672 26.0094 49.2672 26.3555V30.6516C49.2672 31.0608 49.1109 31.4226 48.7982 31.7374C48.4855 32.0364 48.126 32.1859 47.7195 32.1859C47.313 32.1859 46.9535 32.0443 46.6408 31.761C46.3281 31.4777 46.1718 31.1316 46.1718 30.7224V26.4736C46.1874 25.6867 46.336 24.9471 46.6174 24.2547C46.9144 23.5623 47.313 22.9565 47.8133 22.4372C48.3292 21.9179 48.9311 21.5087 49.619 21.2097C50.3068 20.9108 51.0572 20.7612 51.8702 20.7612ZM64.6257 20.7612C65.3761 20.7612 66.0952 20.9029 66.7831 21.1861C67.4709 21.4537 68.0729 21.8392 68.5888 22.3427C69.1047 22.8306 69.5189 23.4128 69.8316 24.0895C70.1442 24.7661 70.3005 25.4979 70.3005 26.2847V30.6516C70.3005 31.0608 70.1521 31.4148 69.8551 31.7138C69.5737 32.0128 69.2219 32.1702 68.7998 32.1859C68.3777 32.1859 68.0103 32.0521 67.6977 31.7846C67.4006 31.5013 67.252 31.1473 67.252 30.7224V26.4736C67.252 26.1116 67.1818 25.7733 67.0411 25.4586C66.916 25.1281 66.7284 24.8448 66.4782 24.6088C66.2438 24.3727 65.9624 24.1839 65.6341 24.0423C65.3214 23.9007 64.9775 23.8298 64.6023 23.8298C64.2583 23.8298 63.93 23.9007 63.6174 24.0423C63.3047 24.1682 63.031 24.3412 62.7965 24.5616C62.562 24.7819 62.3744 25.0494 62.2337 25.3641C62.093 25.6789 62.0228 26.0094 62.0228 26.3555V30.6516C62.0228 31.0608 61.8664 31.4226 61.5537 31.7374C61.2411 32.0364 60.8815 32.1859 60.475 32.1859C60.0686 32.1859 59.709 32.0443 59.3963 31.761C59.0837 31.4777 58.9273 31.1316 58.9273 30.7224V26.4736C58.943 25.6867 59.0914 24.9471 59.3728 24.2547C59.6699 23.5623 60.0686 22.9565 60.5688 22.4372C61.0847 21.9179 61.6866 21.5087 62.3745 21.2097C63.0623 20.9108 63.8127 20.7612 64.6257 20.7612ZM77.2405 20.8084C78.0064 20.8084 78.7333 20.958 79.4214 21.2569C80.1095 21.5559 80.7111 21.9651 81.227 22.4844C81.7429 23.0037 82.1496 23.6095 82.4464 24.3019C82.7593 24.9944 82.9154 25.7418 82.9154 26.5444C82.9154 27.3312 82.7667 28.0708 82.4699 28.7632C82.1731 29.4399 81.7664 30.0379 81.2505 30.5572C80.75 31.0765 80.1564 31.4856 79.4683 31.7846C78.7802 32.0836 78.0378 32.2331 77.2405 32.2331C76.4587 32.2331 75.7243 32.0915 75.0362 31.8082C74.3484 31.525 73.7464 31.1316 73.2305 30.628C72.7146 30.1087 72.3082 29.5028 72.0111 28.8104C71.7141 28.118 71.5656 27.3626 71.5656 26.5444C71.5656 25.7575 71.7063 25.0258 71.9877 24.3491C72.2847 23.6567 72.6834 23.0588 73.1836 22.5552C73.6995 22.0359 74.3015 21.6267 74.9893 21.3277C75.6928 21.013 76.4432 20.8399 77.2405 20.8084ZM77.2405 23.9007C76.8808 23.9007 76.5451 23.9715 76.2322 24.1131C75.9193 24.239 75.6379 24.42 75.388 24.656C75.1535 24.892 74.9658 25.1753 74.8251 25.5058C74.6844 25.8205 74.6141 26.1667 74.6141 26.5444C74.6141 26.9063 74.6844 27.2525 74.8251 27.583C74.9658 27.8977 75.1535 28.181 75.388 28.4327C75.6379 28.6688 75.9193 28.8576 76.2322 28.9993C76.5451 29.1409 76.8808 29.2117 77.2405 29.2117C77.6003 29.2117 77.936 29.1409 78.2489 28.9993C78.5772 28.8576 78.8586 28.6688 79.0931 28.4327C79.3276 28.181 79.5152 27.8977 79.6559 27.583C79.7966 27.2525 79.8669 26.9063 79.8669 26.5444C79.8355 25.8205 79.5775 25.2068 79.0931 24.7032C78.6087 24.1996 77.9909 23.9321 77.2405 23.9007ZM92.2948 20.9029C92.7015 21.076 92.9902 21.3592 93.1624 21.7526C93.3346 22.1303 93.3346 22.5237 93.1624 22.9329L89.7622 31.2653C89.6838 31.4384 89.5123 31.6509 89.2463 31.9026C88.9964 32.1387 88.6915 32.2567 88.3317 32.2567C88.0188 32.2567 87.722 32.1859 87.4406 32.0443C87.1592 31.8869 86.9562 31.6273 86.8309 31.2653L83.3838 22.9329C83.2116 22.5237 83.2116 22.1303 83.3838 21.7526C83.556 21.3592 83.8447 21.076 84.2514 20.9029C84.6581 20.7455 85.0568 20.7533 85.4474 20.9265C85.838 21.0996 86.1194 21.3907 86.2916 21.7998L88.2848 26.3319L90.2546 21.7998C90.4268 21.3907 90.7082 21.0996 91.0988 20.9265C91.5055 20.7533 91.9042 20.7455 92.2948 20.9029ZM100.019 20.8557C100.723 20.9344 101.379 21.1389 101.989 21.4694C102.615 21.7998 103.146 22.2247 103.584 22.744C104.037 23.2476 104.389 23.8298 104.639 24.4908C104.905 25.136 105.038 25.8205 105.038 26.5444V30.7224C105.038 31.1473 104.881 31.5092 104.569 31.8082C104.256 32.1072 103.905 32.2567 103.513 32.2567C102.967 32.2567 102.528 32.0049 102.2 31.5013C102.122 31.5328 102.052 31.5722 101.989 31.6194C101.927 31.6509 101.864 31.6823 101.801 31.7138C101.426 31.8869 101.044 32.0207 100.652 32.1151C100.246 32.2095 99.8162 32.2567 99.3626 32.2567C98.1901 32.2567 97.1429 31.9419 96.2203 31.3125C95.2984 30.6673 94.6103 29.8411 94.1567 28.834C94.0006 28.4721 93.8753 28.1023 93.7815 27.7246C93.7038 27.3469 93.6643 26.9535 93.6643 26.5444C93.6643 26.1352 93.7038 25.7418 93.7815 25.3641C93.8753 24.9865 94.0006 24.6167 94.1567 24.2547C94.6103 23.2318 95.2984 22.4057 96.2203 21.7762C97.1429 21.1468 98.1901 20.832 99.3626 20.832C99.4879 20.832 99.5971 20.832 99.6909 20.832C99.8008 20.832 99.91 20.8399 100.019 20.8557ZM99.3391 29.1881C99.6989 29.1881 100.035 29.1252 100.348 28.9993C100.676 28.8576 100.957 28.6688 101.192 28.4327C101.426 28.1967 101.614 27.9213 101.755 27.6066C101.895 27.2761 101.966 26.922 101.966 26.5444C101.966 26.1982 101.895 25.8677 101.755 25.553C101.614 25.2225 101.419 24.9393 101.168 24.7032C100.934 24.4514 100.652 24.2547 100.324 24.1131C100.012 23.9715 99.6835 23.9007 99.3391 23.9007C98.9954 23.9007 98.6671 23.9715 98.3542 24.1131C98.042 24.2547 97.7606 24.4514 97.5101 24.7032C97.2756 24.9393 97.088 25.2225 96.9473 25.553C96.8066 25.8677 96.7362 26.1982 96.7362 26.5444C96.7362 26.9063 96.8066 27.2525 96.9473 27.583C97.104 27.8977 97.299 28.1731 97.5335 28.4091C97.7841 28.6452 98.0655 28.834 98.3777 28.9757C98.6906 29.1173 99.0108 29.1881 99.3391 29.1881ZM111.957 20.832C113.521 20.832 114.85 21.3828 115.944 22.4844C116.21 22.7833 116.327 23.1374 116.296 23.5466C116.28 23.9558 116.131 24.294 115.85 24.5616C115.569 24.8291 115.209 24.9708 114.771 24.9865C114.334 25.0022 113.974 24.8606 113.693 24.5616C113.208 24.121 112.63 23.9007 111.957 23.9007C111.598 23.9007 111.254 23.9794 110.925 24.1367C110.613 24.2783 110.332 24.4751 110.081 24.7268C109.847 24.9629 109.659 25.2382 109.518 25.553C109.378 25.8677 109.307 26.1982 109.307 26.5444C109.307 26.9063 109.378 27.2525 109.518 27.583C109.659 27.8977 109.855 28.181 110.105 28.4327C110.355 28.6688 110.637 28.8576 110.949 28.9993C111.262 29.1409 111.598 29.2038 111.957 29.1881C112.645 29.1881 113.224 28.9757 113.693 28.5508C113.974 28.236 114.334 28.0787 114.771 28.0787C115.209 28.0787 115.569 28.236 115.85 28.5508C115.991 28.6767 116.101 28.8261 116.178 28.9993C116.257 29.1724 116.296 29.3533 116.296 29.5422C116.312 29.731 116.288 29.9198 116.225 30.1087C116.163 30.2818 116.069 30.4391 115.944 30.5808C115.397 31.1316 114.795 31.5486 114.138 31.8318C113.482 32.1151 112.755 32.2567 111.957 32.2567C111.176 32.2567 110.441 32.1072 109.753 31.8082C109.066 31.4935 108.463 31.0765 107.947 30.5572C107.431 30.0379 107.017 29.432 106.704 28.7396C106.408 28.0472 106.259 27.3154 106.259 26.5444C106.259 25.789 106.408 25.0652 106.704 24.3727C107.017 23.6803 107.431 23.0745 107.947 22.5552C108.479 22.0359 109.089 21.6189 109.776 21.3041C110.465 20.9894 111.191 20.832 111.957 20.832ZM119.193 17.2441C119.615 17.2441 119.966 17.3937 120.248 17.6926C120.545 17.9916 120.709 18.3615 120.74 18.802V28.1259C120.74 28.4406 120.842 28.7081 121.045 28.9284C121.249 29.1488 121.507 29.2589 121.819 29.2589C122.226 29.2589 122.577 29.4005 122.874 29.6838C123.187 29.967 123.351 30.3211 123.367 30.746C123.367 31.1237 123.234 31.462 122.968 31.761C122.718 32.0443 122.39 32.2174 121.983 32.2803H121.655C121.108 32.2803 120.592 32.1702 120.107 31.9498C119.623 31.7138 119.193 31.4069 118.817 31.0293C118.458 30.6516 118.169 30.211 117.95 29.7074C117.747 29.2038 117.645 28.6767 117.645 28.1259V18.7076C117.692 18.3142 117.856 17.9759 118.137 17.6926C118.419 17.4094 118.77 17.2599 119.193 17.2441ZM125.927 17.2914C126.333 17.2914 126.677 17.4487 126.959 17.7634C127.255 18.0624 127.404 18.4165 127.404 18.8257C127.404 19.2348 127.255 19.5967 126.959 19.9115C126.677 20.2104 126.333 20.36 125.927 20.36C125.473 20.3442 125.098 20.2026 124.801 19.9351C124.52 19.6518 124.379 19.2584 124.379 18.7548C124.394 18.3457 124.551 17.9995 124.848 17.7162C125.16 17.433 125.52 17.2914 125.927 17.2914ZM125.927 20.9029C126.333 20.9029 126.669 21.0524 126.935 21.3513C127.217 21.6503 127.373 22.0123 127.404 22.4372V30.7932C127.404 31.2181 127.271 31.5722 127.005 31.8554C126.739 32.1387 126.38 32.296 125.927 32.3275C125.52 32.3275 125.176 32.2016 124.895 31.9498C124.614 31.6981 124.441 31.344 124.379 30.8876V22.3427C124.41 21.9336 124.574 21.5953 124.872 21.3277C125.168 21.0602 125.52 20.9186 125.927 20.9029ZM137.752 21.2805C138.049 20.9816 138.393 20.8399 138.784 20.8557C139.19 20.8557 139.55 21.0052 139.863 21.3041C140.144 21.5874 140.285 21.9415 140.285 22.3663C140.285 22.7912 140.144 23.1532 139.863 23.4522L136.814 26.5444L139.863 29.6366C140.144 29.9198 140.292 30.2818 140.308 30.7224C140.324 31.1473 140.175 31.5171 139.863 31.8318C139.581 32.1151 139.222 32.2567 138.784 32.2567C138.362 32.2567 137.994 32.0915 137.682 31.761L134.633 28.7396L131.585 31.8318C131.304 32.0836 130.952 32.2252 130.53 32.2567C130.108 32.2882 129.74 32.1466 129.428 31.8318C129.146 31.5486 128.989 31.2024 128.959 30.7932C128.942 30.3683 129.083 29.9985 129.381 29.6838L132.499 26.5444L129.381 23.405C129.083 23.106 128.95 22.7597 128.982 22.3663C129.013 21.973 129.162 21.6189 129.428 21.3041C129.771 20.958 130.138 20.8006 130.53 20.832C130.92 20.8635 131.272 21.0209 131.585 21.3041L134.633 24.3727L137.752 21.2805Z" fill="#15141A"/>
<path d="M31.8054 15.6614L18.5228 17.0724C16.4973 17.2875 15.0286 19.1148 15.2423 21.1537L16.5342 33.4758C16.7479 35.5147 18.5632 36.9931 20.5887 36.778L33.8713 35.367C35.8968 35.1519 37.3655 33.3246 37.1518 31.2857L35.86 18.9636C35.6463 16.9247 33.831 15.4463 31.8054 15.6614Z" fill="url(#paint0_linear_1576_7934)"/>
<path d="M22.3412 12.0685L11.5586 18.3349C9.5933 19.4771 8.91995 22.0066 10.0546 23.9848L16.2799 34.8386C17.4146 36.8168 19.9276 37.4946 21.8928 36.3524L32.6755 30.0861C34.6407 28.9439 35.3141 26.4143 34.1794 24.4361L27.9541 13.5824C26.8194 11.6041 24.3065 10.9264 22.3412 12.0685Z" fill="url(#paint1_linear_1576_7934)"/>
<path opacity="0.271" d="M14.4393 17.5903L23.6397 13.3341C24.7474 12.8836 25.9876 12.8945 27.0873 13.3644C28.1871 13.8343 29.0563 14.7246 29.5038 15.8397L34.1118 26.8977C34.5593 28.0127 34.5485 29.261 34.0817 30.368C33.6149 31.475 32.7303 32.35 31.6226 32.8005L21.4199 36.057C19.1131 36.9951 17.6626 36.5354 16.7306 34.2135L11.9501 23.493C11.5025 22.378 11.5134 21.1297 11.9802 20.0228C12.447 18.9158 13.3315 18.0408 14.4393 17.5903Z" fill="url(#paint2_linear_1576_7934)"/>
<path opacity="0.256" d="M31.1229 16.4661L19.3558 17.716C17.3303 17.9312 15.8616 19.7584 16.0754 21.7974L17.2153 32.6711C17.429 34.7099 19.2443 36.1884 21.2699 35.9732L33.0369 34.7233C35.0624 34.5081 36.5312 32.6808 36.3174 30.6419L35.1775 19.7682C34.9637 17.7294 33.1484 16.251 31.1229 16.4661Z" fill="url(#paint3_linear_1576_7934)"/>
<path d="M29.1162 13.791L15.0827 17.8417C13.7353 18.2305 12.9563 19.6452 13.3426 21.0014L17.4032 35.2558C17.7895 36.6119 19.1949 37.3961 20.5423 37.0072L34.5759 32.9566C35.9232 32.5677 36.7022 31.1531 36.3159 29.7968L32.2553 15.5425C31.869 14.1863 30.4636 13.4021 29.1162 13.791Z" fill="url(#paint4_linear_1576_7934)"/>
<path opacity="0.357" d="M28.285 15.3106L16.5875 18.6869C15.2402 19.0758 14.4611 20.4904 14.8475 21.8467L18.2344 33.7362C18.6208 35.0924 20.0261 35.8765 21.3735 35.4877L33.0709 32.1114C34.4183 31.7225 35.1973 30.3078 34.811 28.9516L31.424 17.0621C31.0377 15.7058 29.6323 14.9217 28.285 15.3106Z" fill="url(#paint5_linear_1576_7934)"/>
<path d="M18.7559 36.9425C18.4423 36.8017 18.1631 36.5933 17.938 36.3322C17.7129 36.0711 17.5473 35.7635 17.453 35.431L13.2925 20.8258C13.1202 20.2211 13.1936 19.5722 13.4966 19.022C13.7996 18.4717 14.3074 18.0652 14.9082 17.8918L28.2216 14.0488L34.391 24.8043C34.8798 25.6565 35.0123 26.6692 34.7593 27.6197C34.5062 28.5702 33.8885 29.3806 33.0419 29.8726L21.5264 36.5648C20.6883 37.0529 19.6929 37.1887 18.7559 36.9425Z" fill="white"/>
<path d="M23.2343 25.1106C23.2343 25.1106 23.0744 22.8476 23.8945 21.6389C24.7146 20.4303 25.9464 20.375 25.9464 20.375C25.9464 20.375 26.75 20.321 27.8135 20.7799C28.877 21.2389 29.3796 21.879 29.3796 21.879C29.3796 21.879 30.1643 22.7886 29.3096 23.5875C28.4548 24.3862 27.4702 23.4071 27.4702 23.4071C27.4702 23.4071 26.9989 22.6907 25.2658 22.8872C23.5328 23.0836 23.2343 25.1106 23.2343 25.1106Z" fill="url(#paint6_linear_1576_7934)"/>
<path opacity="0.138" d="M23.1909 23.5169C23.1909 23.5169 23.7161 20.8596 26.6914 21.3951C29.6668 21.9307 29.3825 23.5169 29.3825 23.5169C29.3825 23.5169 30.1913 22.764 29.2577 21.7486C28.9039 21.3524 28.2581 20.9176 27.3731 20.6192C26.4881 20.3209 25.8639 20.3374 25.4438 20.45C24.3021 20.7561 23.1909 23.5169 23.1909 23.5169Z" fill="white"/>
<path d="M25.926 20.3775C25.926 20.3775 24.6721 20.8935 24.0027 22.0534C23.3333 23.2133 23.3018 23.6059 23.2485 25.0173C23.1953 26.4287 24.235 27.3421 24.235 27.3421C24.235 27.3421 22.9306 27.0172 22.1719 26.4005C21.4133 25.7838 20.9683 24.661 20.9683 24.661C20.9683 24.661 21.2103 22.6942 22.6984 21.4819C24.1865 20.2697 25.926 20.3775 25.926 20.3775Z" fill="url(#paint7_linear_1576_7934)"/>
<path opacity="0.162" d="M22.3476 25.9971C22.3476 25.9971 22.1011 23.7097 23.0027 22.3046C23.9044 20.8994 25.9543 20.3769 25.9543 20.3769C25.9543 20.3769 24.7837 20.2529 23.4235 20.9937C22.0634 21.7345 21.5563 22.8515 21.5563 22.8515C21.5563 22.8515 21.508 23.8004 21.6844 24.674C21.8608 25.5476 22.3476 25.9971 22.3476 25.9971Z" fill="white"/>
<path d="M21.5885 22.8125C21.5885 22.8125 21.608 24.356 22.1124 25.3319C22.6167 26.3077 23.1237 26.6966 24.2151 27.3309C25.3064 27.9651 26.8956 27.6408 26.8956 27.6408C26.8956 27.6408 25.9704 28.7114 25.045 29.0615C24.1195 29.4116 22.7508 29.1941 22.7508 29.1941C22.7508 29.1941 21.2234 28.0817 20.9247 26.1781C20.6259 24.2746 21.5885 22.8125 21.5885 22.8125Z" fill="url(#paint8_linear_1576_7934)"/>
<path opacity="0.148" d="M25.4677 28.8276C25.4677 28.8276 23.1727 28.7014 22.0519 27.0178C20.9312 25.3341 21.5646 22.8262 21.5646 22.8262C21.5646 22.8262 20.6502 24.3205 20.9082 26.0802C21.1662 27.8399 22.3892 28.9126 22.3892 28.9126C22.3892 28.9126 23.2323 29.2447 24.0385 29.2201C24.5382 29.1995 25.0268 29.0653 25.4677 28.8276Z" fill="white"/>
<path d="M22.2627 28.7476C22.2627 28.7476 23.5689 30.3546 26.0109 30.2836C28.4528 30.2127 29.1763 28.8698 29.1763 28.8698C29.1763 28.8698 29.9611 27.9602 29.1062 27.1613C28.2514 26.3624 27.2669 27.3417 27.2669 27.3417C27.2669 27.3417 26.4693 27.9546 25.0855 28.6512C23.7018 29.3477 22.2627 28.7476 22.2627 28.7476Z" fill="url(#paint9_linear_1576_7934)"/>
<path opacity="0.147" d="M29.3314 27.4375C29.3314 27.4375 27.3308 29.3128 25.5705 29.6372C23.8101 29.9616 22.2671 28.769 22.2671 28.769C22.2671 28.769 23.6075 30.3257 25.7899 30.3306C27.9723 30.3355 28.8855 29.2207 28.8855 29.2207C28.8855 29.2207 29.3694 28.7705 29.4808 28.3246C29.5923 27.8787 29.3314 27.4375 29.3314 27.4375Z" fill="white"/>
<path d="M20.2664 29.9922C20.2664 29.9922 17.9971 29.7085 17.9971 27.3193C17.9971 24.9302 20.2664 23.6562 20.2664 23.6562V29.9922Z" fill="url(#paint10_linear_1576_7934)"/>
<path opacity="0.19" d="M20.2667 23.6152C20.2667 23.6152 18.9971 25.6826 18.9971 27.4744C18.9971 29.2663 20.2667 30.0188 20.2667 30.0188V23.6152Z" fill="white"/>
<path d="M17.9971 21.0273C17.9971 21.0273 20.2664 21.3166 20.2664 23.7523C20.2664 26.1879 17.9971 27.4869 17.9971 27.4869V21.0273Z" fill="url(#paint11_linear_1576_7934)"/>
<path opacity="0.19" d="M17.9971 27.5295C17.9971 27.5295 19.2667 25.4222 19.2667 23.5956C19.2667 21.769 17.9971 21.002 17.9971 21.002V27.5295Z" fill="white"/>
<path d="M19.0924 19.4769C19.0924 19.4769 18.8689 19.7947 19.1354 20.1825C19.402 20.5703 20.0006 20.3247 20.0006 20.3247C19.887 20.4462 19.7495 20.5423 19.5967 20.6069C19.444 20.6715 19.2794 20.7032 19.1137 20.6999C18.5442 20.6914 18.3333 20.3994 18.3333 20.3994C18.3333 20.3994 18.0395 19.949 18.3716 19.5885C18.4597 19.4879 18.5801 19.4216 18.7119 19.4012C18.8437 19.3808 18.9783 19.4076 19.0924 19.4769Z" fill="url(#paint12_linear_1576_7934)"/>
<path d="M19.0939 19.477C19.0939 19.477 18.7591 19.3005 18.4844 19.6624C18.2097 20.0244 18.4084 20.472 18.4084 20.472C18.2716 20.3815 18.1559 20.2623 18.0691 20.1226C17.9823 19.9829 17.9266 19.826 17.9057 19.6625C17.8318 19.1011 18.0829 18.835 18.0829 18.835C18.0829 18.835 18.4696 18.3563 18.9193 18.6864C19.3689 19.0165 19.0939 19.477 19.0939 19.477Z" fill="url(#paint13_linear_1576_7934)"/>
<path d="M19.0962 19.4766C19.0962 19.4766 19.1706 18.9901 18.5458 19.0021C17.9209 19.0143 17.9033 19.6303 17.9033 19.6303C17.8764 19.4689 17.8833 19.3036 17.9233 19.145C17.9633 18.9863 18.0357 18.8378 18.1358 18.7088C18.478 18.2593 18.8221 18.2602 18.8221 18.2602C18.8221 18.2602 19.4466 18.2253 19.5326 18.7784C19.6186 19.3317 19.0962 19.4766 19.0962 19.4766Z" fill="url(#paint14_linear_1576_7934)"/>
<path d="M19.0957 19.4758C19.0957 19.4758 19.5491 19.2456 19.3758 18.8183C19.2025 18.391 18.3853 18.4415 18.3853 18.4415C18.5607 18.3143 18.7666 18.236 18.9818 18.2149C19.1971 18.1936 19.4141 18.2302 19.6108 18.3207C20.3079 18.6307 20.3226 19.1842 20.3226 19.1842C20.3226 19.1842 20.3065 19.7747 19.7568 19.8612C19.2071 19.9476 19.0957 19.4758 19.0957 19.4758Z" fill="url(#paint15_linear_1576_7934)"/>
<path d="M19.0966 19.4723C19.2035 19.5634 19.3356 19.6193 19.4751 19.6324C19.6146 19.6455 19.7547 19.6153 19.8766 19.5458C20.329 19.3081 19.9425 18.5273 19.9425 18.5273C19.9425 18.5273 20.3611 18.7801 20.3589 19.453C20.3567 20.1258 19.9425 20.3825 19.9425 20.3825C19.9425 20.3825 19.4264 20.6635 19.0771 20.2276C18.7278 19.7917 19.0966 19.4723 19.0966 19.4723Z" fill="url(#paint16_linear_1576_7934)"/>
<path opacity="0.145" d="M18.6462 20.0743C18.6128 19.5141 19.1015 19.4609 19.1015 19.4609C19.1015 19.4609 18.7229 19.8237 19.1015 20.2402C19.2014 20.357 19.3379 20.4359 19.4884 20.464C19.6389 20.4921 19.7945 20.4676 19.9293 20.3947C19.8198 20.4869 19.6967 20.5617 19.5645 20.6161C19.3657 20.6918 18.6796 20.6343 18.6462 20.0743Z" fill="white"/>
<path opacity="0.085" d="M18.3951 20.472C18.3951 20.472 17.7756 19.9374 18.3145 19.4265C18.8535 18.9156 19.1044 19.4649 19.1044 19.4649C18.998 19.4212 18.8799 19.4153 18.7697 19.4484C18.6596 19.4815 18.564 19.5516 18.4989 19.647C18.2384 19.9895 18.3951 20.472 18.3951 20.472Z" fill="white"/>
<path opacity="0.165" d="M19.4737 18.2422C19.641 18.2735 19.7962 18.3514 19.9217 18.4672C20.0398 18.5854 20.0406 18.7538 20.074 18.9289C20.1102 19.1175 20.1533 19.3163 19.9642 19.488C19.6165 19.8036 19.0742 19.488 19.0742 19.488C19.0742 19.488 19.478 19.5933 19.698 19.1017C19.9179 18.61 19.4737 18.2422 19.4737 18.2422Z" fill="white"/>
<path opacity="0.098" d="M17.8897 19.5934C17.8897 19.5934 17.8656 18.4998 18.6927 18.6828C19.5199 18.8657 19.0894 19.468 19.0894 19.468C19.0894 19.468 19.1879 19.0544 18.583 18.9958C17.9781 18.9372 17.8897 19.5934 17.8897 19.5934Z" fill="white"/>
<path opacity="0.15" d="M20.3676 19.5218C20.3676 19.5218 20.2757 20.7216 19.4214 20.4336C18.5673 20.1456 19.0831 19.4844 19.0831 19.4844C19.0831 19.4844 19.0041 19.9067 19.6665 19.9927C20.329 20.0787 20.3676 19.5218 20.3676 19.5218Z" fill="#142A31"/>
<defs>
<linearGradient id="paint0_linear_1576_7934" x1="34.6076" y1="18.3525" x2="20.3253" y2="37.1067" gradientUnits="userSpaceOnUse">
<stop stop-color="#FE026C"/>
<stop offset="1" stop-color="#C60A5F"/>
</linearGradient>
<linearGradient id="paint1_linear_1576_7934" x1="16.9499" y1="15.2017" x2="27.3864" y2="33.1598" gradientUnits="userSpaceOnUse">
<stop stop-color="#CD7CFA"/>
<stop offset="1" stop-color="#0010D3"/>
</linearGradient>
<linearGradient id="paint2_linear_1576_7934" x1="19.0236" y1="15.2114" x2="26.9497" y2="34.7009" gradientUnits="userSpaceOnUse">
<stop stop-color="#ECCBFF"/>
<stop offset="1" stop-color="#7176AC"/>
</linearGradient>
<linearGradient id="paint3_linear_1576_7934" x1="33.9887" y1="18.9307" x2="20.7563" y2="36.3064" gradientUnits="userSpaceOnUse">
<stop stop-color="white"/>
<stop offset="1" stop-color="#C60A5F"/>
</linearGradient>
<linearGradient id="paint4_linear_1576_7934" x1="29.7021" y1="14.5553" x2="18.7124" y2="35.5047" gradientUnits="userSpaceOnUse">
<stop stop-color="#00C4FF"/>
<stop offset="1" stop-color="#1856C9"/>
</linearGradient>
<linearGradient id="paint5_linear_1576_7934" x1="29.0999" y1="15.8935" x2="19.4654" y2="34.2559" gradientUnits="userSpaceOnUse">
<stop stop-color="white"/>
<stop offset="1" stop-color="#1856C9"/>
</linearGradient>
<linearGradient id="paint6_linear_1576_7934" x1="29.968" y1="21.9743" x2="23.859" y2="24.2602" gradientUnits="userSpaceOnUse">
<stop stop-color="#DD90FF"/>
<stop offset="0.355" stop-color="#A428F2"/>
<stop offset="0.734" stop-color="#5F00BE"/>
<stop offset="1" stop-color="#360780"/>
</linearGradient>
<linearGradient id="paint7_linear_1576_7934" x1="24.6816" y1="20.375" x2="22.2173" y2="26.5516" gradientUnits="userSpaceOnUse">
<stop stop-color="#19B8FF"/>
<stop offset="0.522" stop-color="#0C9ACF"/>
<stop offset="1" stop-color="#00378E"/>
</linearGradient>
<linearGradient id="paint8_linear_1576_7934" x1="20.8419" y1="24.0105" x2="23.7265" y2="29.5811" gradientUnits="userSpaceOnUse">
<stop stop-color="#FFCD45"/>
<stop offset="0.512" stop-color="#E54600"/>
<stop offset="1" stop-color="#A51900"/>
</linearGradient>
<linearGradient id="paint9_linear_1576_7934" x1="29.889" y1="27.0471" x2="25.6653" y2="32.5923" gradientUnits="userSpaceOnUse">
<stop stop-color="#FF7E7E"/>
<stop offset="0.389" stop-color="#FF2B7D"/>
<stop offset="0.734" stop-color="#BE0050"/>
<stop offset="1" stop-color="#7C0051"/>
</linearGradient>
<linearGradient id="paint10_linear_1576_7934" x1="19.1317" y1="29.9922" x2="19.1317" y2="23.6562" gradientUnits="userSpaceOnUse">
<stop stop-color="#F45C0C"/>
<stop offset="0.537" stop-color="#B217B2"/>
<stop offset="1" stop-color="#5F0045"/>
</linearGradient>
<linearGradient id="paint11_linear_1576_7934" x1="19.1318" y1="21.0273" x2="19.1318" y2="27.4869" gradientUnits="userSpaceOnUse">
<stop stop-color="#D67BFF"/>
<stop offset="0.537" stop-color="#8B0FE6"/>
<stop offset="1" stop-color="#42005F"/>
</linearGradient>
<linearGradient id="paint12_linear_1576_7934" x1="19.4913" y1="20.7447" x2="19.1633" y2="19.4156" gradientUnits="userSpaceOnUse">
<stop stop-color="#FFBA00"/>
<stop offset="0.508" stop-color="#E3441C"/>
<stop offset="1" stop-color="#A91C12"/>
</linearGradient>
<linearGradient id="paint13_linear_1576_7934" x1="17.8834" y1="19.974" x2="19.029" y2="19.4315" gradientUnits="userSpaceOnUse">
<stop stop-color="#FF79A2"/>
<stop offset="1" stop-color="#AF0050"/>
</linearGradient>
<linearGradient id="paint14_linear_1576_7934" x1="19.3283" y1="19.4317" x2="18.109" y2="18.7324" gradientUnits="userSpaceOnUse">
<stop stop-color="#50098D"/>
<stop offset="1" stop-color="#E841AE"/>
</linearGradient>
<linearGradient id="paint15_linear_1576_7934" x1="19.4008" y1="18.3259" x2="19.1657" y2="19.664" gradientUnits="userSpaceOnUse">
<stop stop-color="#AC43F0"/>
<stop offset="1" stop-color="#3B0687"/>
</linearGradient>
<linearGradient id="paint16_linear_1576_7934" x1="20.0782" y1="19.657" x2="18.8964" y2="19.8692" gradientUnits="userSpaceOnUse">
<stop stop-color="#05CFFF"/>
<stop offset="1" stop-color="#0A529B"/>
</linearGradient>
</defs>
</svg>
