<svg width="151" height="49" viewBox="0 0 151 49" fill="none" xmlns="http://www.w3.org/2000/svg">
<mask id="mask0_1576_8247" style="mask-type:alpha" maskUnits="userSpaceOnUse" x="0" y="0" width="151" height="49">
<rect width="151" height="49" fill="white"/>
</mask>
<g mask="url(#mask0_1576_8247)">
</g>
<path d="M54.1343 14.6544C53.7655 14.3166 53.3115 14.0352 52.8291 13.8381C52.3184 13.6411 51.7793 13.5566 51.1835 13.5566C50.5876 13.5566 50.0485 13.6411 49.5378 13.8381C49.0271 14.0352 48.6015 14.3166 48.2326 14.6544C47.8638 14.9922 47.5801 15.4144 47.3531 15.8929C47.1545 16.3715 47.041 16.8781 47.041 17.4411C47.041 18.004 47.1545 18.5389 47.3531 18.9892C47.5517 19.4678 47.8354 19.89 48.2326 20.2278C48.6015 20.5937 49.0555 20.847 49.5378 21.044C50.0485 21.2411 50.5876 21.3255 51.1835 21.3255C51.7793 21.3255 52.3184 21.2411 52.8291 21.044C53.3398 20.847 53.7655 20.5655 54.1343 20.2278C54.5032 19.89 54.7869 19.4678 55.0139 18.9892C55.2125 18.5107 55.326 17.9759 55.326 17.4129C55.326 16.85 55.2125 16.3152 55.0139 15.8648C54.7869 15.4144 54.5032 14.9922 54.1343 14.6544ZM53.652 18.5107C53.5101 18.8203 53.3399 19.13 53.0845 19.3552C52.8291 19.6085 52.5454 19.7774 52.2333 19.9181C51.8928 20.0589 51.5523 20.1152 51.1551 20.1152C50.7579 20.1152 50.4174 20.0589 50.0769 19.9181C49.7364 19.7774 49.4527 19.6085 49.2257 19.3552C48.9704 19.1018 48.8001 18.8203 48.6582 18.5107C48.5164 18.1729 48.4596 17.8352 48.4596 17.4411C48.4596 17.047 48.5164 16.6811 48.6582 16.3715C48.8001 16.0618 48.9704 15.7522 49.2257 15.527C49.4811 15.2737 49.7648 15.1048 50.0769 14.964C50.389 14.8233 50.7579 14.767 51.1551 14.767C51.5523 14.767 51.8928 14.8233 52.2333 14.964C52.5738 15.1048 52.8575 15.2737 53.0845 15.527C53.3399 15.7803 53.5101 16.0618 53.652 16.3715C53.7938 16.6811 53.8506 17.047 53.8506 17.4411C53.8506 17.8352 53.7938 18.2011 53.652 18.5107Z" fill="#373B49"/>
<path d="M62.5046 17.891C62.5046 18.6791 62.3344 19.2421 61.9939 19.608C61.6534 19.974 61.1711 20.1428 60.5469 20.1428C59.9226 20.1428 59.4403 19.974 59.0998 19.608C58.7593 19.2421 58.5891 18.6791 58.5891 17.891V13.6406H57.1704V17.9473C57.1704 19.0451 57.4542 19.9177 58.0784 20.4806C58.6742 21.0717 59.497 21.3532 60.5469 21.3532C61.5967 21.3532 62.4195 21.0717 63.0153 20.4806C63.6112 19.8895 63.9233 19.0451 63.9233 17.9473V13.6406H62.533V17.891H62.5046Z" fill="#373B49"/>
<path d="M65.228 14.8228H67.7532V21.2688H69.1719V14.8228H71.7255V13.6406H65.228V14.8228Z" fill="#373B49"/>
<path d="M77.769 17.4982C77.5136 17.3574 77.2015 17.2167 76.8894 17.1323C76.5773 17.0478 76.2368 16.9634 75.8964 16.8789C75.5559 16.7945 75.2722 16.7382 74.9884 16.6537C74.7331 16.5693 74.5061 16.4567 74.3358 16.316C74.1656 16.1752 74.0805 15.9782 74.0805 15.753C74.0805 15.556 74.1372 15.3871 74.2507 15.2182C74.3642 15.0774 74.5345 14.9367 74.7898 14.8523C75.0452 14.7678 75.3573 14.7115 75.7545 14.7115C76.095 14.7115 76.4355 14.7678 76.8043 14.8523C77.1732 14.9367 77.5137 15.1056 77.8825 15.3026L78.3362 14.2049C77.9958 13.9797 77.5988 13.8108 77.1448 13.6982C76.6908 13.5856 76.2368 13.5293 75.7829 13.5293C75.0735 13.5293 74.5061 13.6419 74.0521 13.8389C73.5981 14.036 73.2576 14.3174 73.0307 14.6552C72.8037 14.993 72.6902 15.3871 72.6902 15.7811C72.6902 16.1752 72.7753 16.513 72.9455 16.7945C73.1158 17.0478 73.3428 17.273 73.5981 17.4137C73.8535 17.5826 74.1656 17.6952 74.4777 17.8078C74.7898 17.8923 75.1303 18.0049 75.4424 18.0611C75.7545 18.1456 76.0666 18.2019 76.322 18.2863C76.5773 18.3708 76.8043 18.4834 76.9745 18.6241C77.1448 18.7649 77.2299 18.9619 77.2299 19.1871C77.2299 19.3841 77.1732 19.553 77.0597 19.6937C76.9462 19.8345 76.7476 19.9471 76.5206 20.0597C76.2652 20.1441 75.9531 20.2004 75.5559 20.2004C75.0735 20.2004 74.6196 20.116 74.1656 19.9471C73.7116 19.7782 73.3428 19.5811 73.0307 19.356L72.5483 20.4537C72.8604 20.7352 73.3144 20.9323 73.8535 21.1011C74.3926 21.27 74.9884 21.3545 75.5843 21.3545C76.2936 21.3545 76.8611 21.2419 77.315 21.0449C77.769 20.8478 78.1095 20.5663 78.3362 20.2286C78.5636 19.8908 78.6773 19.4967 78.6773 19.1026C78.6773 18.7086 78.5918 18.3708 78.4216 18.1174C78.2514 17.8641 78.0247 17.6389 77.769 17.4982Z" fill="#373B49"/>
<path d="M87.0474 14.6544C86.678 14.3166 86.2246 14.0352 85.7422 13.8381C85.2316 13.6411 84.692 13.5566 84.0966 13.5566C83.5005 13.5566 82.9616 13.6411 82.451 13.8381C81.9397 14.0352 81.5145 14.3166 81.1458 14.6544C80.7764 14.9922 80.4932 15.4144 80.2658 15.8929C80.0673 16.3715 79.9536 16.8781 79.9536 17.4411C79.9536 18.004 80.0673 18.5389 80.2658 18.9892C80.4643 19.4678 80.7482 19.89 81.1458 20.2278C81.5145 20.5937 81.9686 20.847 82.451 21.044C82.9616 21.2411 83.5005 21.3255 84.0966 21.3255C84.692 21.3255 85.2316 21.2411 85.7422 21.044C86.2529 20.847 86.678 20.5655 87.0474 20.2278C87.4161 19.89 87.7 19.4678 87.9267 18.9892C88.1252 18.5107 88.2389 17.9759 88.2389 17.4129C88.2389 16.85 88.1252 16.3152 87.9267 15.8648C87.7 15.4144 87.4161 14.9922 87.0474 14.6544ZM86.5933 18.5107C86.4513 18.8203 86.2811 19.13 86.0254 19.3552C85.7705 19.6085 85.4866 19.7774 85.1744 19.9181C84.834 20.0589 84.4935 20.1152 84.0966 20.1152C83.699 20.1152 83.3586 20.0589 83.0181 19.9181C82.6777 19.7774 82.3938 19.6085 82.1671 19.3552C81.9397 19.1018 81.7412 18.8203 81.5992 18.5107C81.4573 18.1729 81.4008 17.8352 81.4008 17.4411C81.4008 17.047 81.4573 16.6811 81.5992 16.3715C81.7412 16.0618 81.9114 15.7522 82.1671 15.527C82.422 15.2737 82.706 15.1048 83.0181 14.964C83.3303 14.8233 83.699 14.767 84.0966 14.767C84.4935 14.767 84.834 14.8233 85.1744 14.964C85.5148 15.1048 85.7987 15.2737 86.0254 15.527C86.2811 15.7803 86.4513 16.0618 86.5933 16.3715C86.7352 16.6811 86.7917 17.047 86.7917 17.4411C86.7917 17.8352 86.7352 18.2011 86.5933 18.5107Z" fill="#373B49"/>
<path d="M95.4175 17.891C95.4175 18.6791 95.2473 19.2421 94.9068 19.608C94.5664 19.974 94.084 20.1428 93.4597 20.1428C92.8353 20.1428 92.353 19.974 92.0125 19.608C91.6721 19.2421 91.5019 18.6791 91.5019 17.891V13.6406H90.083V17.9473C90.083 19.0451 90.3669 19.9177 90.9913 20.4806C91.5867 21.0717 92.4095 21.3532 93.4597 21.3532C94.5092 21.3532 95.332 21.0717 95.9281 20.4806C96.5242 19.8895 96.8357 19.0451 96.8357 17.9473V13.6406H95.4457V17.891H95.4175Z" fill="#373B49"/>
<path d="M104.184 18.7073C104.667 18.4821 105.036 18.1725 105.319 17.7784C105.575 17.3843 105.717 16.9058 105.717 16.3428C105.717 15.7799 105.575 15.3014 105.319 14.9073C105.064 14.5132 104.695 14.1754 104.184 13.9784C103.674 13.7814 103.107 13.6406 102.426 13.6406H99.2759V21.2688H100.695V19.0451H102.426C102.539 19.0451 102.624 19.0451 102.709 19.0451L104.27 21.2688H105.802L104.043 18.7636C104.1 18.7354 104.128 18.7354 104.184 18.7073ZM103.788 15.2169C104.1 15.4703 104.27 15.8643 104.27 16.3428C104.27 16.8214 104.1 17.1873 103.788 17.4688C103.475 17.7503 102.993 17.8628 102.369 17.8628H100.695V14.8228H102.369C102.993 14.8228 103.475 14.9636 103.788 15.2169Z" fill="#373B49"/>
<path d="M109.377 15.5278C109.633 15.2745 109.916 15.1056 110.256 14.9649C110.597 14.8241 110.966 14.7678 111.363 14.7678C111.761 14.7678 112.129 14.8523 112.47 14.993C112.81 15.1337 113.122 15.3589 113.406 15.6686L114.314 14.796C113.945 14.3737 113.519 14.0641 113.009 13.8389C112.498 13.6137 111.903 13.5293 111.278 13.5293C110.682 13.5293 110.143 13.6137 109.633 13.8108C109.122 14.0078 108.696 14.2611 108.327 14.6271C107.958 14.993 107.675 15.3871 107.447 15.8656C107.249 16.3441 107.135 16.8789 107.135 17.4419C107.135 18.0049 107.249 18.5397 107.447 19.0182C107.647 19.4967 107.93 19.9189 108.299 20.2567C108.668 20.5945 109.093 20.876 109.604 21.073C110.115 21.27 110.654 21.3545 111.221 21.3545C111.845 21.3545 112.441 21.2419 112.952 21.0167C113.463 20.7915 113.917 20.4819 114.257 20.0597L113.349 19.1871C113.066 19.4967 112.754 19.7219 112.413 19.8626C112.073 20.0034 111.703 20.0878 111.306 20.0878C110.909 20.0878 110.54 20.0315 110.2 19.8908C109.859 19.75 109.575 19.5811 109.32 19.3278C109.065 19.0745 108.895 18.793 108.753 18.4834C108.611 18.1456 108.554 17.8078 108.554 17.4137C108.554 17.0197 108.611 16.6537 108.753 16.3441C108.952 16.0345 109.15 15.753 109.377 15.5278Z" fill="#373B49"/>
<path d="M117.549 13.6406H116.13V21.2688H117.549V13.6406Z" fill="#373B49"/>
<path d="M125.494 18.7917L121.238 13.6406H120.074V21.2688H121.493V16.0895L125.72 21.2688H126.884V13.6406H125.494V18.7917Z" fill="#373B49"/>
<path d="M134.629 19.7219C134.487 19.8063 134.317 19.8908 134.147 19.9471C133.806 20.0597 133.438 20.116 133.041 20.116C132.643 20.116 132.246 20.0597 131.934 19.9189C131.594 19.7782 131.31 19.6093 131.054 19.356C130.799 19.1026 130.6 18.8211 130.487 18.5115C130.345 18.1737 130.288 17.836 130.288 17.4419C130.288 17.0478 130.345 16.6819 130.487 16.3723C130.629 16.0345 130.827 15.753 131.054 15.5278C131.31 15.2745 131.594 15.1056 131.934 14.9649C132.274 14.8241 132.643 14.7678 133.041 14.7678C133.466 14.7678 133.835 14.8523 134.176 14.993C134.516 15.1337 134.856 15.3589 135.14 15.6404L136.048 14.7678C135.679 14.3737 135.253 14.0641 134.715 13.8389C134.204 13.6419 133.608 13.5293 132.955 13.5293C132.359 13.5293 131.792 13.6137 131.31 13.8108C130.799 14.0078 130.373 14.2611 129.976 14.6271C129.607 14.993 129.295 15.3871 129.097 15.8656C128.898 16.3441 128.785 16.8789 128.785 17.4419C128.785 18.0049 128.898 18.5397 129.097 19.0182C129.295 19.4967 129.579 19.9189 129.976 20.2567C130.373 20.5945 130.799 20.876 131.281 21.073C131.792 21.27 132.331 21.3545 132.927 21.3545C133.466 21.3545 134.005 21.27 134.544 21.1011C135.083 20.9323 135.537 20.7071 135.934 20.3693V17.3293H134.573V19.7219H134.629Z" fill="#373B49"/>
<path d="M52.971 28.2229H48.9987V25.0703H47.5801V32.6985H48.9987V29.4333H52.971V32.6985H54.3897V25.0703H52.971V28.2229Z" fill="#FAC22E"/>
<path d="M58.3337 25.0703H56.915V32.6985H58.3337V25.0703Z" fill="#FAC22E"/>
<path d="M63.8094 30.9533L61.2558 25.0703H59.6953L63.0433 32.6985H64.462L67.81 25.0703H66.3914L63.8094 30.9533Z" fill="#FAC22E"/>
<path d="M70.4772 31.5162V29.4051H74.1941V28.2511H70.4772V26.2525H74.6481V25.0703H69.0586V32.6985H74.8184V31.5162H70.4772Z" fill="#FAC22E"/>
<path d="M21.8737 13.8672H16.7665L14.1846 18.3146L16.7665 22.7339H21.8737L24.4557 18.3146L21.8737 13.8672Z" fill="#43AE61"/>
<path d="M21.8737 23.8594H16.7665L14.1846 28.2787L16.7665 32.726H21.8737L24.4557 28.2787L21.8737 23.8594Z" fill="#0080B8"/>
<path d="M30.5275 17.7514L33.1379 13.304L30.5843 8.88477H25.4203L22.8667 13.304L25.4487 17.7514H30.5275Z" fill="#FAC22E"/>
<path d="M34.1313 22.7339H39.2385L41.8205 18.3146L39.2385 13.8672H34.1313L31.5493 18.3146L34.1313 22.7339Z" fill="#765EA4"/>
<path d="M34.1313 32.726H39.2385L41.8205 28.2787L39.2385 23.8594H34.1313L31.5493 28.2787L34.1313 32.726Z" fill="#F28E39"/>
<path d="M25.4487 28.8418L22.8667 33.2892L25.4203 37.7085H30.5843L33.1379 33.2892L30.5275 28.8418H25.4487Z" fill="#E94E44"/>
<path d="M30.5275 18.877H25.4487L22.8667 23.2962L25.4487 27.7155H30.5275L33.1095 23.2962L30.5275 18.877Z" fill="#373B49"/>
</svg>
