<svg width="56" height="56" viewBox="0 0 56 56" fill="none" xmlns="http://www.w3.org/2000/svg">
<path d="M38.9313 6.02186C38.6365 3.99853 36.8724 2.47264 34.8277 2.47264H21.1724C19.1276 2.47264 17.3635 3.99853 17.0688 6.02197L16.3485 10.9682H19.7713L20.4204 6.51C20.4744 6.13922 20.7977 5.85966 21.1724 5.85966H34.8277C35.2023 5.85966 35.5257 6.13933 35.5796 6.51L36.2287 10.9681H39.6516L38.9313 6.02186Z" fill="#40CF79"/>
<path d="M49.9241 35.6351H35.2614V37.6121C35.2614 38.2376 34.9167 38.812 34.3649 39.1064L28.797 42.0757C28.548 42.2085 28.2741 42.275 28 42.275C27.7261 42.275 27.452 42.2086 27.203 42.0757L21.6351 39.1064C21.0832 38.812 20.7386 38.2376 20.7386 37.6121V35.6351H6.07589C3.76458 35.6351 1.64511 34.801 0 33.4195V51.4489C0 52.5949 0.932422 53.5275 2.07856 53.5275H53.9214C55.0675 53.5275 56 52.5951 56 51.4489V33.4195C54.3548 34.801 52.2353 35.6351 49.9241 35.6351Z" fill="#695CFF"/>
<path d="M53.9214 14.3551H2.07856C0.932422 14.3551 0 15.2877 0 16.4337V26.1721C0 29.5224 2.72562 32.248 6.07589 32.248H20.7386V29.2814C20.7386 28.3462 21.4969 27.5879 22.4322 27.5879H33.568C34.5032 27.5879 35.2615 28.3462 35.2615 29.2814V32.248H49.9241C53.2744 32.248 56 29.5224 56 26.1721V16.4337C56 15.2877 55.0676 14.3551 53.9214 14.3551Z" fill="#695CFF"/>
<path d="M24.1257 30.9751V36.596L28 38.6622L31.8743 36.596V30.9751H24.1257Z" fill="#40CF79"/>
</svg>
