<svg width="58" height="58" viewBox="0 0 58 58" fill="none" xmlns="http://www.w3.org/2000/svg">
<path fill-rule="evenodd" clip-rule="evenodd" d="M21.9114 37.3014C22.053 38.6527 22.3266 39.9915 22.7544 41.2693C23.4018 43.203 24.4454 45.0987 25.9806 46.4773C26.2761 46.7427 26.3921 47.1149 26.3148 47.5012L25.632 50.9128C25.5585 51.2803 25.3258 51.561 24.9758 51.7012C24.6155 51.8455 24.2608 51.8042 23.9426 51.5841C21.4152 49.8357 19.5694 47.2667 18.3627 44.4774C17.3812 42.2087 16.8012 39.7678 16.5714 37.3014H21.9114ZM24.9113 17.558V34.5137C33.6347 36.4008 40.8891 41.5787 47.8207 45.8722C48.6598 46.3921 49.7142 46.0647 50.5278 45.5299C51.3415 44.9952 51.7857 44.1968 51.7857 43.2681V9.03316C51.7857 8.10776 51.3448 7.3116 50.5355 6.7764C49.7263 6.2413 48.7349 6.0162 47.8389 6.42314C41.5432 9.28389 33.5261 15.3081 24.9113 17.558Z" fill="#695CFF"/>
<path d="M6.21429 25.8927C6.21429 30.4492 9.95028 34.1774 14.5171 34.1785H21.6676C21.853 28.7923 21.6676 23.0633 21.6676 17.6072L14.5192 17.6071C9.95146 17.6071 6.21429 21.3357 6.21429 25.8927Z" fill="#40CF79"/>
</svg>
