<svg width="58" height="58" viewBox="0 0 58 58" fill="none" xmlns="http://www.w3.org/2000/svg">
<path d="M29.6412 32.6001H50.0318C55.6847 31.9374 51.0076 22.2563 48.2283 20.3386C46.9561 19.2324 45.4778 18.3885 43.8783 17.8554C44.9976 17.1671 45.9218 16.2034 46.5628 15.0564C47.2037 13.9093 47.54 12.6172 47.5396 11.3032C47.1587 1.10245 32.5167 1.09528 32.1333 11.3033C32.1329 12.6173 32.4692 13.9094 33.1102 15.0564C33.7511 16.2035 34.6753 17.1671 35.7946 17.8554C33.2124 18.7108 30.975 20.3761 29.4146 22.6041C27.6571 24.934 24.8862 32.2145 29.6412 32.6001Z" fill="#695CFF"/>
<path d="M10.193 30.0263H4.52898C4.28884 30.027 4.05875 30.1227 3.88895 30.2925C3.71915 30.4623 3.62344 30.6924 3.62273 30.9326V49.0938C3.62344 49.3339 3.71915 49.564 3.88895 49.7338C4.05875 49.9036 4.28884 49.9993 4.52898 50.0001H10.193C10.9077 49.9946 11.592 49.7101 12.0999 49.2073C12.6078 48.7045 12.8991 48.0231 12.9118 47.3085V32.7451C12.909 32.0249 12.6216 31.335 12.1124 30.8257C11.6031 30.3165 10.9132 30.0291 10.193 30.0263ZM8.27179 36.4426C8.01547 36.4376 7.77132 36.3323 7.5918 36.1493C7.41228 35.9663 7.31171 35.7201 7.31172 35.4638C7.31173 35.2074 7.4123 34.9613 7.59184 34.7783C7.77137 34.5953 8.01552 34.49 8.27184 34.4851C8.5282 34.4899 8.77242 34.5952 8.95199 34.7782C9.13156 34.9613 9.23216 35.2074 9.23215 35.4638C9.23215 35.7202 9.13154 35.9664 8.95196 36.1494C8.77238 36.3324 8.52816 36.4377 8.2718 36.4426L8.27179 36.4426Z" fill="#695CFF"/>
<path d="M54.1734 40.3394C53.8691 39.4809 53.2484 38.771 52.4382 38.3549C51.6279 37.9388 50.6893 37.848 49.8143 38.101L42.1383 40.3213C42.1001 41.8478 41.468 43.2992 40.3765 44.3671C39.2849 45.4349 37.82 46.035 36.293 46.0397H27.8196C27.5823 46.0351 27.3563 45.9376 27.1901 45.7681C27.0239 45.5987 26.9308 45.3708 26.9309 45.1335C26.9309 44.8961 27.024 44.6683 27.1901 44.4988C27.3563 44.3294 27.5823 44.2319 27.8196 44.2272H36.293C41.6363 44.0517 41.6279 36.2985 36.2929 36.1344C34.7753 36.1253 31.2894 36.141 29.7408 36.1344C29.1984 36.1353 28.6671 35.9813 28.2093 35.6904L24.9649 33.6332C22.4597 31.7486 17.625 32.4318 14.7061 32.3191C14.7152 32.4459 14.7243 32.591 14.7243 32.7451V47.3085C14.7244 47.6168 14.6879 47.9241 14.6155 48.2238C14.9098 48.2399 15.1959 48.327 15.4493 48.4776L22.4455 52.5557C24.2939 53.6346 26.3775 54.2464 28.5157 54.338C30.654 54.4296 32.7823 53.9983 34.7161 53.0813L52.3336 44.7438C53.1315 44.3681 53.7615 43.7096 54.1014 42.8958C54.4413 42.082 54.467 41.171 54.1734 40.3394Z" fill="#40CF79"/>
</svg>
