<svg width="58" height="58" viewBox="0 0 58 58" fill="none" xmlns="http://www.w3.org/2000/svg">
<path d="M14.6526 48.1298L19.4351 52.9123L24.2176 48.1298L29.0001 52.9123L33.7824 48.1298L38.5649 52.9123L43.3473 48.1298V14.6526H14.6526V48.1298ZM19.4351 19.4351H29V24.2176H19.4351V19.4351ZM19.4351 28.9999H38.5649V33.7824H19.4351V28.9999ZM19.4351 38.5649H38.5649V43.3474H19.4351V38.5649Z" fill="#695CFF"/>
<path d="M48.1298 5.08771H9.87021C7.23983 5.08771 5.08772 7.23981 5.08772 9.8702V19.4351C5.08772 22.0654 7.23983 24.2176 9.87021 24.2176H12.2614V19.4351H9.87021V9.8702H48.1298V19.4351H45.7386V24.2176H48.1298C50.7602 24.2176 52.9123 22.0654 52.9123 19.4351V9.8702C52.9123 7.23981 50.7602 5.08771 48.1298 5.08771Z" fill="#40CF79"/>
</svg>
