<svg width="58" height="58" viewBox="0 0 58 58" fill="none" xmlns="http://www.w3.org/2000/svg">
<g clip-path="url(#clip0_584_2211)">
<path d="M29 10.1953C26.189 10.1953 23.9023 7.90862 23.9023 5.09766C23.9023 2.2867 26.189 0 29 0C31.811 0 34.0977 2.2867 34.0977 5.09766C34.0977 7.90862 31.811 10.1953 29 10.1953Z" fill="#695CFF"/>
<path d="M37.4961 20.3906H20.5039V18.6914C20.5039 14.0069 24.3155 10.1953 29 10.1953C33.6845 10.1953 37.4961 14.0069 37.4961 18.6914V20.3906Z" fill="#695CFF"/>
<path d="M13.707 23.8214H23.9023V30.6183H13.707V23.8214Z" fill="#40CF79"/>
<path d="M34.0977 23.8214H44.293V30.6183H34.0977V23.8214Z" fill="#40CF79"/>
<path d="M34.0977 33.9844V42.707C34.0977 45.518 31.811 47.8047 29 47.8047C26.189 47.8047 23.9023 45.518 23.9023 42.707V33.9844H13.707V42.707C13.707 51.14 20.567 58 29 58C37.433 58 44.293 51.14 44.293 42.707V33.9844H34.0977Z" fill="#695CFF"/>
<path d="M40.8872 11.8495L40.9178 8.451L47.7149 8.51217L47.6843 11.9107L40.8872 11.8495Z" fill="#40CF79"/>
<path d="M39.7318 17.5883L41.1963 14.52L47.3343 17.4497L45.8698 20.518L39.7318 17.5883Z" fill="#695CFF"/>
<path d="M39.9025 2.80536L46.087 -0.0150631L47.4969 3.07648L41.3124 5.89691L39.9025 2.80536Z" fill="#695CFF"/>
<path d="M10.2975 8.50922L17.0946 8.44804L17.1252 11.8466L10.3281 11.9078L10.2975 8.50922Z" fill="#40CF79"/>
<path d="M10.7021 17.469L16.84 14.5393L18.3045 17.6076L12.1665 20.5373L10.7021 17.469Z" fill="#695CFF"/>
<path d="M10.5114 3.09143L11.9213 -0.00011591L18.1058 2.8203L16.6959 5.91185L10.5114 3.09143Z" fill="#695CFF"/>
</g>
<defs>
<clipPath id="clip0_584_2211">
<rect width="58" height="58" fill="white"/>
</clipPath>
</defs>
</svg>
