<svg width="58" height="58" viewBox="0 0 58 58" fill="none" xmlns="http://www.w3.org/2000/svg">
<g clip-path="url(#clip0_584_1083)">
<path fill-rule="evenodd" clip-rule="evenodd" d="M43.8948 17.0846H50.3853V58.0011H43.8948V17.0846Z" fill="#40CF79"/>
<path fill-rule="evenodd" clip-rule="evenodd" d="M31.4196 28.0372H37.9101V57.9997H31.4196V28.0372Z" fill="#695CFF"/>
<path fill-rule="evenodd" clip-rule="evenodd" d="M6.46774 35.9406H12.9582V58.0011H6.46774V35.9406Z" fill="#695CFF"/>
<path fill-rule="evenodd" clip-rule="evenodd" d="M18.9443 24.7337H25.4348V58.0011H18.9443V24.7337Z" fill="#40CF79"/>
<path d="M35.3748 14.1066L43.6395 5.84186L45.6898 7.89217L37.4251 16.1569L35.3748 14.1066Z" fill="#695CFF"/>
<path d="M25.1944 11.0609L31.3845 14.6347L29.9458 17.1384L23.7557 13.5645L25.1944 11.0609Z" fill="#695CFF"/>
<path d="M8.46802 21.2891L17.715 12.0421L19.7655 14.0926L10.5185 23.3394L8.46802 21.2891Z" fill="#695CFF"/>
<path d="M33.8224 13.4197C34.3994 13.4197 34.9529 13.5357 35.4605 13.746C37.0682 14.4119 38.112 15.9768 38.112 17.7092C38.112 20.0783 36.1913 21.9989 33.8224 21.9989C31.4534 21.9989 29.5328 20.0781 29.5328 17.7092C29.5328 15.3349 31.4698 13.4197 33.8224 13.4197Z" fill="#40CF79"/>
<path d="M47.2422 -0.00012207C49.6112 -0.00012207 51.5318 1.92067 51.5318 4.28955C51.5318 6.65843 49.6112 8.57909 47.2422 8.57909C44.8651 8.57909 42.9526 6.64023 42.9526 4.28955C42.9526 1.92067 44.8733 -0.00012207 47.2422 -0.00012207Z" fill="#40CF79"/>
<path d="M21.3177 6.20016C23.6867 6.20016 25.6074 8.12082 25.6074 10.4898C25.6074 12.8411 23.6922 14.7794 21.3177 14.7794C19.5852 14.7794 18.0204 13.7356 17.3545 12.1279C17.1442 11.6202 17.0282 11.0666 17.0282 10.4898C17.0282 8.12096 18.9489 6.20016 21.3177 6.20016Z" fill="#40CF79"/>
</g>
<defs>
<clipPath id="clip0_584_1083">
<rect width="58" height="58" fill="white"/>
</clipPath>
</defs>
</svg>
