<svg width="58" height="58" viewBox="0 0 58 58" fill="none" xmlns="http://www.w3.org/2000/svg">
<path d="M17.8894 26.4262C17.8894 21.6413 21.605 17.7443 26.1544 17.7443C30.0875 17.7443 33.3681 20.6444 34.2019 24.5231H37.8813H48.0857V23.5987C48.0857 22.8556 47.6144 22.185 46.9257 21.9131L43.5906 20.6444C43.2825 19.6293 42.9018 18.6687 42.4306 17.7262L43.9531 14.3187C44.2431 13.6481 44.0982 12.8506 43.5906 12.325L39.7663 8.33746C39.2225 7.77559 38.3887 7.61252 37.6818 7.9569L34.4919 9.49748C33.6219 9.02621 32.7156 8.64555 31.7912 8.33746L30.5587 4.83934C30.305 4.1143 29.6163 3.625 28.855 3.625H23.4356C22.6744 3.625 21.9856 4.1143 21.7319 4.83934L20.4994 8.33746C19.575 8.64555 18.6687 9.02621 17.7988 9.49748L14.6269 7.9569C13.9018 7.61252 13.0682 7.77559 12.5243 8.33746L8.69998 12.325C8.19254 12.8506 8.04751 13.6481 8.3556 14.3187L9.86001 17.7262C9.40688 18.6506 9.00808 19.6293 8.69998 20.6444L5.38308 21.9131C4.67628 22.185 4.20502 22.8556 4.20502 23.5987V29.2538C4.20502 29.9969 4.67628 30.6675 5.38308 30.9394L8.69998 32.208C9.00808 33.223 9.40688 34.1837 9.86001 35.1263L8.3556 38.5338C8.04751 39.2044 8.19254 40.0019 8.69998 40.5275L12.5243 44.515C13.0682 45.0769 13.9018 45.2399 14.6269 44.8955L17.7988 43.355C18.6687 43.8262 19.575 44.2069 20.4994 44.515L21.7319 48.0131C21.9856 48.7382 22.6744 49.2275 23.4356 49.2275H23.9432V34.7819C20.4631 33.7669 17.8894 30.3955 17.8894 26.4262Z" fill="#695CFF"/>
<path d="M50.0975 28.1481H31.2475C29.2175 28.1481 27.5682 29.7975 27.5682 31.8456V50.6956C27.5682 52.7256 29.2175 54.375 31.2475 54.375H50.0975C52.1275 54.375 53.795 52.7256 53.795 50.6956V31.8456C53.795 29.7975 52.1275 28.1481 50.0975 28.1481ZM38.1531 31.7912V37.4825L39.2407 36.8119C40.1831 36.3043 41.1799 36.3225 42.0137 36.7574L43.21 37.4825V31.8275H46.835V39.0231C46.835 40.0019 46.3093 40.9262 45.4575 41.4156C45.0225 41.6512 44.5513 41.7781 44.08 41.7781C43.5906 41.7781 43.1193 41.6512 42.6843 41.3974L40.6725 40.1831L38.6968 41.3793C37.8087 41.905 36.7575 41.905 35.9056 41.4156C35.0538 40.9262 34.5281 40.0019 34.5281 39.0231V35.1444V31.7912H38.1531Z" fill="#40CF79"/>
</svg>
