<svg width="58" height="58" viewBox="0 0 58 58" fill="none" xmlns="http://www.w3.org/2000/svg">
<path d="M29 3.16364C14.79 3.16364 3.16364 14.79 3.16364 29C3.16364 43.21 14.79 54.8364 29 54.8364C43.21 54.8364 54.8364 43.21 54.8364 29C54.8364 14.79 43.2101 3.16364 29 3.16364ZM29 49.6692C17.6319 49.6692 8.33084 40.3681 8.33084 29C8.33084 17.6319 17.6319 8.33084 29 8.33084C40.3681 8.33084 49.6692 17.6321 49.6692 29C49.6692 40.3679 40.3681 49.6692 29 49.6692Z" fill="#695CFF"/>
<path d="M29 13.7091C20.59 13.7091 13.7091 20.59 13.7091 29C13.7091 37.41 20.59 44.2909 29 44.2909C37.41 44.2909 44.2909 37.41 44.2909 29C44.2909 20.59 37.41 13.7091 29 13.7091ZM29 39.194C23.3934 39.194 18.8061 34.6067 18.8061 29.0001C18.8061 23.3935 23.3934 18.8061 29 18.8061C34.6066 18.8061 39.1939 23.3934 39.1939 29C39.1939 34.6066 34.6067 39.194 29 39.194Z" fill="#40CF79"/>
<path d="M29 33.7455C31.6208 33.7455 33.7455 31.6208 33.7455 29C33.7455 26.3792 31.6208 24.2545 29 24.2545C26.3792 24.2545 24.2545 26.3792 24.2545 29C24.2545 31.6208 26.3792 33.7455 29 33.7455Z" fill="#695CFF"/>
</svg>
