<svg width="22" height="22" viewBox="0 0 22 22" fill="none" xmlns="http://www.w3.org/2000/svg">
<g clip-path="url(#clip0_716_3750)">
<path d="M11.6525 10.9769L12.2388 10.3906L11.1738 9.9093L11.6525 10.9769Z" fill="white"/>
<path d="M7.11066 13.0663L6.76953 13.4075C6.89822 13.5354 7.03306 13.6696 7.09811 13.7347C7.1746 13.8112 7.30527 13.9408 7.42829 14.0625C7.5532 13.9364 7.68713 13.8014 7.76641 13.7221C7.9635 13.525 7.97987 13.2083 7.80216 13.0306C7.62444 12.8529 7.30776 12.8692 7.11066 13.0663Z" fill="white"/>
<path d="M17.3286 6.19055C17.5803 6.44226 17.5803 6.85034 17.3286 7.10205C17.0769 7.35376 16.6688 7.35376 16.4171 7.10205L14.898 5.58289C14.6463 5.33118 14.6463 4.9231 14.898 4.67139C15.1497 4.41968 15.5577 4.41968 15.8095 4.67139L16.1133 4.97522L19.2838 1.80469H12.9707C12.3439 1.80469 11.7429 2.05369 11.2996 2.49687L0.692194 13.1043C-0.230731 14.0272 -0.230731 15.5236 0.692194 16.4465L5.55355 21.3078C6.47647 22.2307 7.97282 22.2307 8.89574 21.3078L19.5031 10.7004C19.9463 10.2572 20.1953 9.65611 20.1953 9.02932V2.71618L17.0248 5.88672L17.3286 6.19055ZM7.28433 17.754C7.11654 17.9218 6.84446 17.9218 6.67667 17.754L4.5498 15.6272L4.18517 15.9918C4.01737 16.1596 3.7453 16.1596 3.5775 15.9918C3.40971 15.824 3.40971 15.5519 3.5775 15.3841L4.91985 14.0418C5.08764 13.874 5.35972 13.874 5.52751 14.0418C5.6953 14.2096 5.6953 14.4817 5.52751 14.6495L5.15746 15.0195L7.28429 17.1464C7.45212 17.3141 7.45212 17.5862 7.28433 17.754ZM10.3337 14.5531C10.3186 14.7899 10.1144 14.9696 9.87758 14.9545L8.20657 14.848L8.89463 15.536C9.06242 15.7038 9.06242 15.9759 8.89463 16.1437C8.72683 16.3115 8.45476 16.3115 8.28696 16.1437L5.85631 13.713C5.68851 13.5452 5.68851 13.2731 5.85631 13.1053C5.85644 13.1052 5.85656 13.1051 5.85674 13.105C5.85687 13.1048 5.85695 13.1047 5.85708 13.1045L6.50299 12.4586C7.03855 11.9231 7.89397 11.907 8.40985 12.4229C8.83271 12.8458 8.89789 13.4967 8.61271 14.0127L9.93232 14.0968C10.1691 14.112 10.3489 14.3163 10.3337 14.5531ZM11.2494 13.789C11.0816 13.9568 10.8095 13.9568 10.6417 13.789L8.21104 11.3583C8.04324 11.1905 8.04324 10.9184 8.21104 10.7507C8.37883 10.5829 8.65091 10.5828 8.8187 10.7507L11.2494 13.1813C11.4172 13.3491 11.4172 13.6212 11.2494 13.789ZM14.1956 10.8036C14.0978 11.0199 13.8433 11.116 13.6271 11.0182L13.0757 10.769L12.0287 11.816L12.277 12.3699C12.3742 12.5864 12.2773 12.8407 12.0608 12.9378C11.8934 13.0128 11.7035 12.972 11.581 12.8496C11.545 12.8136 11.5149 12.7707 11.4929 12.7215L10.0092 9.41235C10.0078 9.40921 10.0064 9.40603 10.0051 9.40285C9.92502 9.21211 9.96773 8.99426 10.1139 8.84782C10.26 8.70139 10.4778 8.65829 10.6686 8.738C10.6725 8.73958 10.6763 8.74126 10.6801 8.74298L13.9811 10.2351C14.1973 10.3327 14.2933 10.5874 14.1956 10.8036ZM16.0344 8.99985C15.1881 9.85566 15.1633 9.87323 15.1257 9.89974C14.9549 10.0205 14.7219 10.0006 14.5739 9.85269L12.1453 7.42405C11.9775 7.25626 11.9775 6.98418 12.1453 6.81639C12.313 6.6486 12.5851 6.6486 12.7529 6.81639L14.8797 8.94321C15.0372 8.78539 15.2371 8.58395 15.4233 8.39558C15.5902 8.22684 15.8623 8.22534 16.031 8.39218C16.0316 8.39274 16.0322 8.39334 16.0328 8.39395C16.1997 8.56092 16.2007 8.83167 16.0344 8.99985Z" fill="white"/>
<path d="M21.8116 0.188783C21.5599 -0.0629277 21.1518 -0.0629277 20.9001 0.188783L19.2842 1.80471H19.5511C19.9071 1.80471 20.1957 2.09329 20.1957 2.44924V2.71621L21.8116 1.10032C22.0633 0.848611 22.0633 0.440494 21.8116 0.188783Z" fill="white"/>
</g>
<defs>
<clipPath id="clip0_716_3750">
<rect width="22" height="22" fill="white"/>
</clipPath>
</defs>
</svg>
